<?xml version="1.0" standalone="no"?>
<!DOCTYPE svg PUBLIC "-//W3C//DTD SVG 20010904//EN"
 "http://www.w3.org/TR/2001/REC-SVG-20010904/DTD/svg10.dtd">
<svg version="1.0" xmlns="http://www.w3.org/2000/svg"
 width="597.000000pt" height="350.000000pt" viewBox="0 0 597.000000 350.000000"
 preserveAspectRatio="xMidYMid meet">
<metadata>
Created by potrace 1.16, written by Peter Selinger 2001-2019
</metadata>
<g transform="translate(0.000000,350.000000) scale(0.100000,-0.100000)"
fill="#000000" stroke="none">
<path d="M1450 1774 c-793 -949 -1444 -1732 -1447 -1740 -4 -12 89 -14 628
-13 l634 1 1455 1729 c800 952 1457 1734 1458 1739 2 6 -235 10 -641 10 l-646
0 -1441 -1726z"/>
<path d="M3893 2688 c-373 -447 -1020 -1222 -1437 -1723 -417 -500 -766 -918
-774 -927 -14 -17 16 -18 624 -17 l639 0 1430 1700 c787 935 1445 1717 1463
1739 l34 40 -650 0 -650 0 -679 -812z"/>
</g>
</svg>
